<svg width="132" height="66" viewBox="0 0 132 66" fill="none" xmlns="http://www.w3.org/2000/svg">
<g clip-path="url(#clip0_16_248)">
<path d="M81.6273 24.3485C80.9991 24.6592 84.69 24.3485 84.69 24.3485C84.69 24.3485 140.683 23.4831 130.109 27.7325C127.377 28.831 121 28.6756 117.499 33.0028C114.47 36.7474 112.686 41.6571 108.799 40.4921C100.75 38.0788 99.5886 40.7251 98.7023 41.6016C91.4101 48.8135 85.8007 37.1635 82.4407 40.4921C70.661 52.1421 66.74 37.1635 53.2775 43.8206C50.815 45.0356 44.9027 44.2811 43.1806 42.1563C36.4493 33.8349 33.3866 38.6669 30.0042 38.9276C24.1143 39.3825 22.6559 38.5504 21.8705 36.6087C20.7487 33.8349 17.742 31.2719 15.7002 30.5064C13.5967 29.7186 8.67728 32.1706 6.72521 31.0611C4.55438 29.824 -1.26255 24.7313 1.11583 25.5135C4.48146 26.623 44.2969 24.404 46.5406 24.9587" stroke="black" stroke-width="2" stroke-miterlimit="10"/>
<path d="M28.6016 32.7254C32.7806 33.38 33.2517 32.3038 36.1742 31.8932C40.7571 31.2497 43.6179 32.1429 45.7102 33.0028" stroke="black" stroke-miterlimit="10"/>
<path d="M85.5254 32.448C90.5738 31.8933 90.6748 30.4453 93.3785 31.3385C96.7442 32.448 98.0231 31.2331 100.671 31.8933" stroke="black" stroke-miterlimit="10"/>
<path d="M63.935 37.1579C74.1553 37.1579 82.4404 28.964 82.4404 18.8564C82.4404 8.74867 74.1553 0.554764 63.935 0.554764C53.7148 0.554764 45.4297 8.74867 45.4297 18.8564C45.4297 28.964 53.7148 37.1579 63.935 37.1579Z" stroke="black" stroke-width="2" stroke-miterlimit="10"/>
<path d="M49.3516 13.3143C49.6937 12.5154 52.9528 6.57948 59.4485 4.4381C64.4969 2.77381 70.9309 5.592 71.7891 6.10238" stroke="black" stroke-width="2" stroke-miterlimit="10"/>
<path d="M6.73047 31.0611C26.9186 59.3484 56.6428 63.7865 56.6428 63.7865" stroke="black" stroke-width="2" stroke-miterlimit="10"/>
<path d="M21.8711 36.6087C25.7977 55.4651 58.3265 64.3413 58.3265 64.3413" stroke="black" stroke-width="2" stroke-miterlimit="10"/>
<path d="M30.0039 38.9276C40.9422 63.7865 62.8132 65.4508 62.8132 65.4508" stroke="black" stroke-width="2" stroke-miterlimit="10"/>
<path d="M43.1855 42.1508C49.3559 65.4452 62.8128 65.4452 62.8128 65.4452" stroke="black" stroke-width="2" stroke-miterlimit="10"/>
<path d="M53.2773 43.8151C56.0428 64.5576 62.8301 65.4452 62.8301 65.4452C62.8301 65.4452 68.4171 65.4452 71.7827 44.7027" stroke="black" stroke-width="2" stroke-miterlimit="10"/>
<path d="M85.2452 41.0413C78.5139 62.1167 61.6914 65.4452 61.6914 65.4452" stroke="black" stroke-width="2" stroke-miterlimit="10"/>
<path d="M62.8125 65.4452C62.8125 65.4452 85.2444 64.8905 98.7069 41.596" stroke="black" stroke-width="2" stroke-miterlimit="10"/>
<path d="M108.799 40.4865C100.385 62.6714 63.9355 64.8905 63.9355 64.8905" stroke="black" stroke-width="2" stroke-miterlimit="10"/>
<path d="M127.126 28.6756C108.059 59.7367 68.3392 64.835 68.9843 64.3413" stroke="black" stroke-width="2" stroke-miterlimit="10"/>
</g>
<defs>
<clipPath id="clip0_16_248">
<rect width="132" height="66" fill="white"/>
</clipPath>
</defs>
</svg>
