<svg width="632" height="81" viewBox="0 0 632 81" fill="none" xmlns="http://www.w3.org/2000/svg">
<g clip-path="url(#clip0_37_32)">
<path d="M568.414 29.0528C567.624 29.4157 572.263 29.0528 572.263 29.0528C572.263 29.0528 642.641 28.0279 629.359 33.053C625.929 34.35 617.908 34.1686 613.504 39.2844C609.693 43.7109 607.452 49.516 602.57 48.1464C592.455 45.2891 590.993 48.4185 589.882 49.4616C580.722 57.9879 573.666 44.2097 569.437 48.1464C554.634 61.9245 549.694 44.2097 532.776 52.083C529.687 53.5252 522.252 52.6272 520.089 50.1147C511.63 40.2731 507.781 45.9876 503.522 46.296C496.116 46.8311 494.284 45.8515 493.3 43.5567C491.887 40.2731 488.106 37.2436 485.543 36.3365C482.902 35.4022 476.714 38.3048 474.268 36.9896C471.539 35.5292 464.23 29.4973 467.222 30.4316C471.451 31.7468 521.502 29.1163 524.318 29.7785" stroke="white" stroke-width="2" stroke-miterlimit="10"/>
<path d="M501.758 38.9671C507.01 39.7381 507.605 38.4682 511.279 37.9784C517.038 37.2165 520.634 38.2777 523.265 39.2936" stroke="white" stroke-miterlimit="10"/>
<path d="M573.307 38.6403C579.651 37.9873 579.777 36.2729 583.178 37.3251C587.408 38.6403 589.016 37.1981 592.339 37.9782" stroke="white" stroke-miterlimit="10"/>
<path d="M546.166 44.2098C559.012 44.2098 569.427 34.5161 569.427 22.5584C569.427 10.6006 559.012 0.906982 546.166 0.906982C533.319 0.906982 522.904 10.6006 522.904 22.5584C522.904 34.5161 533.319 44.2098 546.166 44.2098Z" stroke="white" stroke-width="2" stroke-miterlimit="10"/>
<path d="M527.836 16.0004C528.265 15.057 532.358 8.03644 540.524 5.50575C546.868 3.53744 554.956 6.8754 556.028 7.47406" stroke="white" stroke-width="2" stroke-miterlimit="10"/>
<path d="M474.268 36.9988C499.643 70.46 537.006 75.7119 537.006 75.7119" stroke="white" stroke-width="2" stroke-miterlimit="10"/>
<path d="M493.299 43.5566C498.23 65.8702 539.12 76.3648 539.12 76.3648" stroke="white" stroke-width="2" stroke-miterlimit="10"/>
<path d="M503.521 46.3052C517.272 75.7119 544.762 77.6802 544.762 77.6802" stroke="white" stroke-width="2" stroke-miterlimit="10"/>
<path d="M520.088 50.1147C527.845 77.6711 544.762 77.6711 544.762 77.6711" stroke="white" stroke-width="2" stroke-miterlimit="10"/>
<path d="M532.777 52.083C536.256 76.6188 544.783 77.671 544.783 77.671C544.783 77.671 551.809 77.671 556.039 53.1352" stroke="white" stroke-width="2" stroke-miterlimit="10"/>
<path d="M572.955 48.8086C564.496 73.7435 543.35 77.6801 543.35 77.6801" stroke="white" stroke-width="2" stroke-miterlimit="10"/>
<path d="M544.764 77.6801C544.764 77.6801 572.966 77.0271 589.883 49.4617" stroke="white" stroke-width="2" stroke-miterlimit="10"/>
<path d="M602.56 48.1465C591.987 74.3967 546.166 77.018 546.166 77.018" stroke="white" stroke-width="2" stroke-miterlimit="10"/>
<path d="M625.597 34.1777C601.624 70.9225 551.701 76.9544 552.51 76.3649" stroke="white" stroke-width="2" stroke-miterlimit="10"/>
<path d="M67.4449 48.3731C67.4449 68.1922 49.407 80.4284 33.7176 80.4284C18.0282 80.4284 0 68.1922 0 48.3731C0 28.5539 17.9307 15.9368 33.7273 15.9368C49.5239 15.9368 67.4547 28.8351 67.4547 48.3731H67.4449ZM60.2141 48.3731C60.2141 30.8306 49.4167 17.0797 33.7273 17.0797C18.0379 17.0797 7.23077 30.8306 7.23077 48.3731C7.23077 65.9155 17.9307 79.2855 33.7176 79.2855C49.5044 79.2855 60.2044 65.9155 60.2044 48.3731H60.2141ZM38.0054 47.0487L40.2467 48.1826L38.0054 49.3164C36.6801 49.9785 35.6666 50.9309 34.9454 52.1645L33.7273 54.2508L32.5092 52.1645C31.7978 50.9309 30.7746 49.9876 29.4493 49.3164L27.2079 48.1826L29.4493 47.0487C30.7746 46.3866 31.7881 45.4342 32.5092 44.2006L33.7273 42.1144L34.9454 44.2006C35.6568 45.4342 36.6801 46.3775 38.0054 47.0487Z" fill="white"/>
<path d="M90.3741 39.7378C86.5053 42.9579 81.4087 48.7449 81.3015 54.1509V76.1561C81.3015 79.2854 83.845 80.3285 83.845 80.3285V80.4192H71.5176V80.3285C71.5176 80.3285 74.061 79.2854 74.061 76.1561V38.223C74.061 35.003 71.5176 34.0506 71.5176 34.0506V33.8601H76.9163C79.3623 33.8601 81.3015 35.6651 81.3015 37.9419L81.0969 48.5635C82.1201 46.0963 90.569 33.8601 100.86 33.8601C106.258 33.8601 111.355 35.9463 113.09 38.6947L107.896 44.1008C106.775 39.7378 99.0276 32.6265 90.3741 39.7378Z" fill="white"/>
<path d="M155.988 73.317L156.602 73.4077C151.301 78.342 144.275 80.4283 136.937 80.4283C121.55 80.4283 109.018 69.8974 109.018 57.0081C109.018 44.1189 120.838 33.8691 136.323 33.8691C146 33.8691 157.314 42.0236 154.254 49.4251C152.519 53.6883 147.228 56.1555 134.793 53.0261C119.61 49.2346 115.742 60.1374 118.694 67.3485C122.261 74.5596 129.394 79.2037 136.927 79.2037C144.46 79.2037 151.291 77.4985 155.979 73.326L155.988 73.317ZM116.453 60.6091C117.671 54.2507 123.177 48.7539 134.998 51.7925C142.024 53.5976 146.711 50.8401 147.939 47.1484C151.204 37.2887 138.058 31.5924 126.646 36.9078C120.127 39.9464 116.258 47.9103 116.258 57.0172C116.258 58.2508 116.356 59.4844 116.463 60.6182L116.453 60.6091Z" fill="white"/>
<path d="M207.031 80.3286V80.4193H201.633C199.294 80.4193 197.355 78.6142 197.247 76.4373V66.0062C194.09 72.7365 186.138 79.8478 177.377 80.8002C164.231 82.2243 156.591 73.308 156.893 65.344C157.4 48.8447 180.739 53.77 180.739 49.5068C180.739 47.7018 176.968 47.4206 172.797 46.568C168.519 45.7153 164.134 43.5293 164.952 39.9283C166.892 31.2025 205.199 28.5448 204.488 54.4412C204.39 58.8041 204.488 76.1561 204.488 76.1561C204.488 79.2854 207.031 80.3286 207.031 80.3286ZM197.345 54.16C197.247 27.3203 167.389 34.7218 166.375 40.0281C165.664 43.3479 169.533 44.6722 173.304 45.5249C177.485 46.4773 182.269 46.7585 181.967 49.788C181.558 55.2848 165.459 52.2552 164.134 65.1535C162.711 77.8614 172.593 79.9476 177.377 79.6664C186.343 79.095 197.247 68.7636 197.247 59.8473H197.345V54.16Z" fill="white"/>
<path d="M250.728 15.9368H262.958V16.1273C262.958 16.1273 260.415 17.1704 260.415 20.2997V58.4232C260.415 74.5416 253.593 80.4284 244.423 80.4284C235.867 80.4284 228.227 75.7842 226.083 71.4213C223.939 67.2489 225.576 63.5481 228.227 62.2238C230.166 61.2714 233.216 61.3711 235.458 64.8815C236.072 65.7341 236.676 66.877 237.397 68.2013C239.843 72.5642 243.614 79.1041 247.181 78.9136C251.566 77.9612 253.291 73.9792 253.291 58.4323V20.2997C253.291 17.1704 250.748 16.1273 250.748 16.1273V15.9368H250.728ZM244.209 79.2855C241.051 77.29 238.401 72.4554 236.257 68.7546L234.425 65.4348C233.099 63.539 231.677 62.8769 230.449 62.8769C229.835 62.8769 229.231 63.0673 228.821 63.2578C226.677 64.3916 225.352 67.3396 227.194 70.9406C229.231 74.9225 236.569 79.1948 244.209 79.2855Z" fill="white"/>
<path d="M317.871 56.9085C317.871 69.8976 306.459 80.4285 292.397 80.4285C278.335 80.4285 267.031 69.8976 267.031 56.9085C267.031 43.9195 278.443 33.8603 292.397 33.8603C306.352 33.8603 317.871 44.0102 317.871 56.9085ZM310.64 56.9085C310.64 44.2914 304.121 35.0939 292.407 35.0939C280.694 35.0939 274.272 44.2914 274.272 56.9085C274.272 69.5257 280.791 79.1949 292.407 79.1949C304.023 79.1949 310.64 69.5257 310.64 56.9085ZM283.335 26.368C289.143 24.1911 298.819 16.599 298.927 16.5083L299.843 17.6421C299.843 17.6421 291.793 27.4111 286.287 30.35L283.335 26.368ZM295.457 56.3371L296.987 57.1897L295.457 57.9516C294.541 58.4233 293.83 59.0855 293.313 59.9472L292.397 61.4619L291.579 59.9472C291.072 59.0945 290.361 58.4324 289.435 57.9516L287.808 57.1897L289.435 56.3371C290.351 55.8654 291.062 55.2033 291.579 54.3416L292.397 52.8268L293.313 54.3416C293.82 55.1942 294.532 55.8563 295.457 56.3371Z" fill="white"/>
<path d="M334.273 80.3286V80.4193H321.945V80.3286C321.945 80.3286 324.489 79.2854 324.489 76.1561V38.1233C324.489 34.994 321.945 33.9508 321.945 33.9508V33.8601H327.344C329.79 33.8601 331.729 35.6652 331.729 37.8421V76.1561C331.729 79.2854 334.273 80.3286 334.273 80.3286ZM322.764 26.0867C322.764 23.7193 324.703 21.8145 327.247 21.8145C329.79 21.8145 331.729 23.7102 331.729 26.0867C331.729 28.4632 329.693 30.4496 327.247 30.4496C324.801 30.4496 322.764 28.5539 322.764 26.0867Z" fill="white"/>
<path d="M388.58 80.3286V80.4193H383.181C380.843 80.4193 378.903 78.6142 378.796 76.4373V66.0062C375.639 72.7365 367.687 79.8478 358.926 80.8002C345.78 82.2243 338.14 73.308 338.442 65.344C338.949 48.8447 362.288 53.77 362.288 49.5068C362.288 47.7018 358.517 47.4206 354.346 46.568C350.068 45.7153 345.683 43.5293 346.501 39.9283C348.441 31.2025 386.748 28.5448 386.037 54.4412C385.939 58.8041 386.037 76.1561 386.037 76.1561C386.037 79.2854 388.58 80.3286 388.58 80.3286ZM378.894 54.16C378.796 27.3203 348.938 34.7218 347.924 40.0281C347.213 43.3479 351.081 44.6722 354.853 45.5249C359.033 46.4773 363.818 46.7585 363.516 49.788C363.107 55.2848 347.008 52.2552 345.683 65.1535C344.26 77.8614 354.141 79.9476 358.926 79.6664C367.892 79.095 378.796 68.7636 378.796 59.8473H378.894V54.16Z" fill="white"/>
<path d="M399.885 36.8987C404.27 35.003 409.971 33.8601 415.984 33.8601C422.298 33.8601 432.998 36.5178 437.481 39.8376C437.481 39.8376 434.733 43.9193 433.505 45.7153C430.046 42.1143 420.155 33.0982 410.069 35.1844C409.455 35.2751 408.441 35.4656 407.73 35.7558C402.224 37.2706 400.187 40.6902 400.09 44.5724C399.788 52.0647 405.391 56.4276 417.202 58.8948C431.059 61.8337 437.374 64.6818 438.085 69.8974C438.183 70.0879 438.183 70.2784 438.183 70.5595C438.183 70.9405 438.183 71.3215 438.085 71.6934C437.783 74.0608 435.435 76.2468 431.663 77.952C427.59 79.8478 421.879 80.9907 415.467 80.9907C402.633 80.9907 392.645 76.4373 392.645 70.5595C392.645 64.6818 402.633 60.1284 415.467 60.1284H417.406C417.202 60.0377 416.997 60.0377 416.793 60.0377C404.874 58.4232 392.342 52.6361 392.752 44.5815C392.849 41.6426 395.402 38.8943 399.885 36.8987ZM400.09 77.0087C404.163 78.8137 409.669 79.8569 415.477 79.8569C417.923 79.8569 420.262 79.6664 422.503 79.2854C428.106 78.0518 430.855 75.2037 430.962 71.131V70.5595C430.962 69.9881 430.864 69.5164 430.757 68.945C430.455 66.8588 429.334 65.0537 427.298 63.5389C424.345 61.6432 419.862 61.2622 415.477 61.2622C409.669 61.2622 404.163 62.3053 400.09 64.1104C396.114 65.9154 393.98 68.1921 393.98 70.5595C393.98 72.927 396.123 75.2037 400.09 77.0087Z" fill="white"/>
</g>
<defs>
<clipPath id="clip0_37_32">
<rect width="632" height="81" fill="white"/>
</clipPath>
</defs>
</svg>
