<svg width="450" height="217" viewBox="0 0 450 217" fill="none" xmlns="http://www.w3.org/2000/svg">
<g clip-path="url(#clip0_29_2)">
<path d="M254.239 43.89C253.119 44.45 259.699 43.89 259.699 43.89C259.699 43.89 359.519 42.33 340.669 49.99C335.799 51.97 324.429 51.69 318.189 59.49C312.789 66.24 309.609 75.09 302.679 72.99C288.329 68.64 286.259 73.41 284.679 74.99C271.679 87.99 261.679 66.99 255.689 72.99C234.689 93.99 227.699 66.99 203.699 78.99C199.309 81.18 188.769 79.82 185.699 75.99C173.699 60.99 168.239 69.7 162.209 70.17C151.709 70.99 149.109 69.49 147.709 65.99C145.709 60.99 140.349 56.37 136.709 54.99C132.959 53.57 124.189 57.99 120.709 55.99C116.839 53.76 106.469 44.58 110.709 45.99C116.709 47.99 187.689 43.99 191.689 44.99" stroke="#720000" stroke-width="2" stroke-miterlimit="10"/>
<path d="M159.711 58.99C167.161 60.17 168.001 58.23 173.211 57.49C181.381 56.33 186.481 57.94 190.211 59.49" stroke="#720000" stroke-miterlimit="10"/>
<path d="M261.189 58.49C270.189 57.49 270.369 54.88 275.189 56.49C281.189 58.49 283.469 56.3 288.189 57.49" stroke="#720000" stroke-miterlimit="10"/>
<path d="M222.701 66.98C240.921 66.98 255.691 52.2099 255.691 33.99C255.691 15.7701 240.921 1 222.701 1C204.481 1 189.711 15.7701 189.711 33.99C189.711 52.2099 204.481 66.98 222.701 66.98Z" stroke="#720000" stroke-width="2" stroke-miterlimit="10"/>
<path d="M196.699 24.0001C197.309 22.5601 203.119 11.8601 214.699 8.00005C223.699 5.00005 235.169 10.0801 236.699 11.0001" stroke="#720000" stroke-width="2" stroke-miterlimit="10"/>
<path d="M120.721 55.99C156.711 106.98 209.701 114.98 209.701 114.98" stroke="#720000" stroke-width="2" stroke-miterlimit="10"/>
<path d="M147.711 65.99C154.711 99.98 212.701 115.98 212.701 115.98" stroke="#720000" stroke-width="2" stroke-miterlimit="10"/>
<path d="M162.211 70.17C181.711 114.98 220.701 117.98 220.701 117.98" stroke="#720000" stroke-width="2" stroke-miterlimit="10"/>
<path d="M185.699 75.98C196.699 117.97 220.689 117.97 220.689 117.97" stroke="#720000" stroke-width="2" stroke-miterlimit="10"/>
<path d="M203.699 78.98C208.629 116.37 220.729 117.97 220.729 117.97C220.729 117.97 230.689 117.97 236.689 80.58" stroke="#720000" stroke-width="2" stroke-miterlimit="10"/>
<path d="M260.689 73.98C248.689 111.97 218.699 117.97 218.699 117.97" stroke="#720000" stroke-width="2" stroke-miterlimit="10"/>
<path d="M220.699 117.97C220.699 117.97 260.689 116.97 284.689 74.98" stroke="#720000" stroke-width="2" stroke-miterlimit="10"/>
<path d="M302.679 72.98C287.679 112.97 222.699 116.97 222.699 116.97" stroke="#720000" stroke-width="2" stroke-miterlimit="10"/>
<path d="M335.34 51.6899C301.35 107.68 230.54 116.87 231.69 115.98" stroke="#720000" stroke-width="2" stroke-miterlimit="10"/>
<path d="M69.21 180.61C69.21 202.46 50.7 215.95 34.6 215.95C18.5 215.95 0 202.46 0 180.61C0 158.76 18.4 144.85 34.61 144.85C50.82 144.85 69.22 159.07 69.22 180.61H69.21ZM61.79 180.61C61.79 161.27 50.71 146.11 34.61 146.11C18.51 146.11 7.43 161.27 7.43 180.61C7.43 199.95 18.41 214.69 34.61 214.69C50.81 214.69 61.79 199.95 61.79 180.61ZM39 179.15L41.3 180.4L39 181.65C37.64 182.38 36.6 183.43 35.86 184.79L34.61 187.09L33.36 184.79C32.63 183.43 31.58 182.39 30.22 181.65L27.92 180.4L30.22 179.15C31.58 178.42 32.62 177.37 33.36 176.01L34.61 173.71L35.86 176.01C36.59 177.37 37.64 178.41 39 179.15Z" fill="#720000"/>
<path d="M92.7406 171.1C88.7706 174.65 83.5406 181.03 83.4306 186.99V211.25C83.4306 214.7 86.0406 215.85 86.0406 215.85V215.95H73.3906V215.85C73.3906 215.85 76.0006 214.7 76.0006 211.25V169.43C76.0006 165.88 73.3906 164.83 73.3906 164.83V164.62H78.9306C81.4406 164.62 83.4306 166.61 83.4306 169.12L83.2206 180.83C84.2706 178.11 92.9406 164.62 103.501 164.62C109.041 164.62 114.271 166.92 116.051 169.95L110.721 175.91C109.571 171.1 101.621 163.26 92.7406 171.1Z" fill="#720000"/>
<path d="M160.069 208.11L160.699 208.21C155.259 213.65 148.049 215.95 140.519 215.95C124.729 215.95 111.869 204.34 111.869 190.13C111.869 175.92 123.999 164.62 139.889 164.62C149.819 164.62 161.429 173.61 158.289 181.77C156.509 186.47 151.079 189.19 138.319 185.74C122.739 181.56 118.769 193.58 121.799 201.53C125.459 209.48 132.779 214.6 140.509 214.6C148.239 214.6 155.249 212.72 160.059 208.12L160.069 208.11ZM119.499 194.1C120.749 187.09 126.399 181.03 138.529 184.38C145.739 186.37 150.549 183.33 151.809 179.26C155.159 168.39 141.669 162.11 129.959 167.97C123.269 171.32 119.299 180.1 119.299 190.14C119.299 191.5 119.399 192.86 119.509 194.11L119.499 194.1Z" fill="#720000"/>
<path d="M212.449 215.85V215.95H206.909C204.509 215.95 202.519 213.96 202.409 211.56V200.06C199.169 207.48 191.009 215.32 182.019 216.37C168.529 217.94 160.689 208.11 160.999 199.33C161.519 181.14 185.469 186.57 185.469 181.87C185.469 179.88 181.599 179.57 177.319 178.63C172.929 177.69 168.429 175.28 169.269 171.31C171.259 161.69 210.569 158.76 209.839 187.31C209.739 192.12 209.839 211.25 209.839 211.25C209.839 214.7 212.449 215.85 212.449 215.85ZM202.509 186.99C202.409 157.4 171.769 165.56 170.729 171.41C169.999 175.07 173.969 176.53 177.839 177.47C182.129 178.52 187.039 178.83 186.729 182.17C186.309 188.23 169.789 184.89 168.429 199.11C166.969 213.12 177.109 215.42 182.019 215.11C191.219 214.48 202.409 203.09 202.409 193.26H202.509V186.99Z" fill="#720000"/>
<path d="M257.289 144.85H269.839V145.06C269.839 145.06 267.229 146.21 267.229 149.66V191.69C267.229 209.46 260.229 215.95 250.819 215.95C242.039 215.95 234.199 210.83 231.999 206.02C229.799 201.42 231.479 197.34 234.199 195.88C236.189 194.83 239.319 194.94 241.619 198.81C242.249 199.75 242.869 201.01 243.609 202.47C246.119 207.28 249.989 214.49 253.649 214.28C258.149 213.23 259.919 208.84 259.919 191.7V149.67C259.919 146.22 257.309 145.07 257.309 145.07V144.86L257.289 144.85ZM250.599 214.7C247.359 212.5 244.639 207.17 242.439 203.09L240.559 199.43C239.199 197.34 237.739 196.61 236.479 196.61C235.849 196.61 235.229 196.82 234.809 197.03C232.609 198.28 231.249 201.53 233.139 205.5C235.229 209.89 242.759 214.6 250.599 214.7Z" fill="#720000"/>
<path d="M326.19 190.02C326.19 204.34 314.48 215.95 300.05 215.95C285.62 215.95 274.02 204.34 274.02 190.02C274.02 175.7 285.73 164.61 300.05 164.61C314.37 164.61 326.19 175.8 326.19 190.02ZM318.77 190.02C318.77 176.11 312.08 165.97 300.06 165.97C288.04 165.97 281.45 176.11 281.45 190.02C281.45 203.93 288.14 214.59 300.06 214.59C311.98 214.59 318.77 203.93 318.77 190.02ZM290.75 156.35C296.71 153.95 306.64 145.58 306.75 145.48L307.69 146.73C307.69 146.73 299.43 157.5 293.78 160.74L290.75 156.35ZM303.19 189.39L304.76 190.33L303.19 191.17C302.25 191.69 301.52 192.42 300.99 193.37L300.05 195.04L299.21 193.37C298.69 192.43 297.96 191.7 297.01 191.17L295.34 190.33L297.01 189.39C297.95 188.87 298.68 188.14 299.21 187.19L300.05 185.52L300.99 187.19C301.51 188.13 302.24 188.86 303.19 189.39Z" fill="#720000"/>
<path d="M343.019 215.85V215.95H330.369V215.85C330.369 215.85 332.979 214.7 332.979 211.25V169.32C332.979 165.87 330.369 164.72 330.369 164.72V164.62H335.909C338.419 164.62 340.409 166.61 340.409 169.01V211.25C340.409 214.7 343.019 215.85 343.019 215.85ZM331.209 156.04C331.209 153.43 333.199 151.33 335.809 151.33C338.419 151.33 340.409 153.42 340.409 156.04C340.409 158.66 338.319 160.85 335.809 160.85C333.299 160.85 331.209 158.76 331.209 156.04Z" fill="#720000"/>
<path d="M398.75 215.85V215.95H393.21C390.81 215.95 388.82 213.96 388.71 211.56V200.06C385.47 207.48 377.31 215.32 368.32 216.37C354.83 217.94 346.99 208.11 347.3 199.33C347.82 181.14 371.77 186.57 371.77 181.87C371.77 179.88 367.9 179.57 363.62 178.63C359.23 177.69 354.73 175.28 355.57 171.31C357.56 161.69 396.87 158.76 396.14 187.31C396.04 192.12 396.14 211.25 396.14 211.25C396.14 214.7 398.75 215.85 398.75 215.85ZM388.81 186.99C388.71 157.4 358.07 165.56 357.03 171.41C356.3 175.07 360.27 176.53 364.14 177.47C368.43 178.52 373.34 178.83 373.03 182.17C372.61 188.23 356.09 184.89 354.73 199.11C353.27 213.12 363.41 215.42 368.32 215.11C377.52 214.48 388.71 203.09 388.71 193.26H388.81V186.99Z" fill="#720000"/>
<path d="M410.35 167.96C414.85 165.87 420.7 164.61 426.87 164.61C433.35 164.61 444.33 167.54 448.93 171.2C448.93 171.2 446.11 175.7 444.85 177.68C441.3 173.71 431.15 163.77 420.8 166.07C420.17 166.17 419.13 166.38 418.4 166.7C412.75 168.37 410.66 172.14 410.56 176.42C410.25 184.68 416 189.49 428.12 192.21C442.34 195.45 448.82 198.59 449.55 204.34C449.65 204.55 449.65 204.76 449.65 205.07C449.65 205.49 449.65 205.91 449.55 206.32C449.24 208.93 446.83 211.34 442.96 213.22C438.78 215.31 432.92 216.57 426.34 216.57C413.17 216.57 402.92 211.55 402.92 205.07C402.92 198.59 413.17 193.57 426.34 193.57H428.33C428.12 193.47 427.91 193.47 427.7 193.47C415.47 191.69 402.61 185.31 403.03 176.43C403.13 173.19 405.75 170.16 410.35 167.96ZM410.56 212.19C414.74 214.18 420.39 215.33 426.35 215.33C428.86 215.33 431.26 215.12 433.56 214.7C439.31 213.34 442.13 210.2 442.24 205.71V205.08C442.24 204.45 442.14 203.93 442.03 203.3C441.72 201 440.57 199.01 438.48 197.34C435.45 195.25 430.85 194.83 426.35 194.83C420.39 194.83 414.74 195.98 410.56 197.97C406.48 199.96 404.29 202.47 404.29 205.08C404.29 207.69 406.49 210.2 410.56 212.19Z" fill="#720000"/>
</g>
<defs>
<clipPath id="clip0_29_2">
<rect width="449.66" height="216.58" fill="white"/>
</clipPath>
</defs>
</svg>
